<svg width="18" height="15" viewBox="0 0 18 15" fill="none" xmlns="http://www.w3.org/2000/svg">
<path d="M16.2 0H1.8C0.81 0 0 0.84375 0 1.875V13.125C0 14.1562 0.81 15 1.8 15H16.2C17.19 15 18 14.1562 18 13.125V1.875C18 0.84375 17.19 0 16.2 0ZM15.84 3.98438L9.954 7.81875C9.369 8.20312 8.631 8.20312 8.046 7.81875L2.16 3.98438C2.06975 3.9316 1.99073 3.86031 1.9277 3.7748C1.86467 3.68929 1.81896 3.59135 1.79332 3.48691C1.76768 3.38247 1.76265 3.27369 1.77854 3.16716C1.79443 3.06064 1.8309 2.95858 1.88575 2.86716C1.9406 2.77574 2.01269 2.69686 2.09765 2.63531C2.18262 2.57375 2.27868 2.53079 2.38005 2.50903C2.48141 2.48727 2.58595 2.48716 2.68736 2.5087C2.78876 2.53025 2.88492 2.573 2.97 2.63437L9 6.5625L15.03 2.63437C15.1151 2.573 15.2112 2.53025 15.3126 2.5087C15.414 2.48716 15.5186 2.48727 15.62 2.50903C15.7213 2.53079 15.8174 2.57375 15.9023 2.63531C15.9873 2.69686 16.0594 2.77574 16.1142 2.86716C16.1691 2.95858 16.2056 3.06064 16.2215 3.16716C16.2373 3.27369 16.2323 3.38247 16.2067 3.48691C16.181 3.59135 16.1353 3.68929 16.0723 3.7748C16.0093 3.86031 15.9302 3.9316 15.84 3.98438Z" fill="#D1FDFF"/>
</svg>
