<svg width="21" height="19" viewBox="0 0 21 19" fill="none" xmlns="http://www.w3.org/2000/svg">
<path d="M15.2939 12.3208H14.3905L14.0703 12.0429C15.2297 10.8326 15.8669 9.28751 15.8656 7.68954C15.8656 6.36647 15.4297 5.07312 14.613 3.97303C13.7963 2.87294 12.6354 2.01553 11.2772 1.50921C9.91907 1.0029 8.42457 0.870423 6.98275 1.12854C5.54092 1.38666 4.21652 2.02377 3.17702 2.95932C2.13753 3.89487 1.42962 5.08683 1.14282 6.38447C0.856026 7.68212 1.00322 9.02716 1.56579 10.2495C2.12837 11.4719 3.08105 12.5166 4.30337 13.2517C5.52569 13.9867 6.96275 14.3791 8.43282 14.3791C10.2739 14.3791 11.9663 13.7719 13.2699 12.7633L13.5786 13.0515V13.8645L19.2962 19L21 17.4666L15.2939 12.3208ZM8.43282 12.3208C5.58548 12.3208 3.28702 10.2521 3.28702 7.68954C3.28702 5.12693 5.58548 3.05832 8.43282 3.05832C11.2802 3.05832 13.5786 5.12693 13.5786 7.68954C13.5786 10.2521 11.2802 12.3208 8.43282 12.3208Z" fill="#D1FDFF"/>
</svg>
