<svg width="30" height="30" viewBox="0 0 30 30" fill="none" xmlns="http://www.w3.org/2000/svg">
<path d="M15 0C18.9782 0 22.7936 1.58035 25.6066 4.3934C28.4196 7.20644 30 11.0218 30 15C30 18.9782 28.4196 22.7936 25.6066 25.6066C22.7936 28.4196 18.9782 30 15 30C11.0218 30 7.20644 28.4196 4.3934 25.6066C1.58035 22.7936 0 18.9782 0 15C0 11.0218 1.58035 7.20644 4.3934 4.3934C7.20644 1.58035 11.0218 0 15 0ZM11.0738 14.4619C11.6813 15.9206 12.9375 18.8381 14.8425 23.2106C15.1237 23.9194 15.4012 24.2925 15.6712 24.3262C16.1269 24.3825 16.3069 23.8106 16.5525 23.0325L16.6556 22.7044C16.905 21.9394 17.1956 20.9081 17.2069 20.3738C17.2181 19.8863 17.0194 19.3444 16.6069 18.7463C13.8488 14.6606 12.4556 12.5512 12.4256 12.42C12.4031 12.3262 12.3769 12.195 12.4556 12.1088C12.5325 12.0206 12.6806 12.03 12.72 12.0394C12.9619 12.0956 15.0469 14.34 16.1269 15.5006C16.4644 15.8625 16.7025 16.1194 16.7569 16.1719C16.875 16.2875 16.9913 16.405 17.1056 16.5244C17.7919 17.2369 18.3056 17.7694 19.1456 16.4962C19.5506 15.8831 19.8825 15.3919 20.2162 14.9025C20.58 14.37 20.9419 13.8375 21.3956 13.1475C21.5081 12.9731 21.63 12.8044 21.7462 12.6412C22.1887 12.0206 22.5863 11.46 22.5225 10.7719C22.485 10.3706 22.11 9.95625 20.985 9.74625C18.3281 9.24937 12.5737 8.2725 10.2019 8.0475C10.0047 8.03377 9.80662 8.04195 9.61125 8.07188C9.4536 8.08953 9.30836 8.16583 9.20437 8.28562C9.08661 8.45623 9.02559 8.65961 9.03 8.86688C9.03937 9.42938 9.34125 10.2975 11.0738 14.4619Z" fill="#D1FDFF" fill-opacity="0.5"/>
</svg>
