<svg width="30" height="30" viewBox="0 0 30 30" fill="none" xmlns="http://www.w3.org/2000/svg">
<path d="M29.5 29.994L22.2964 27.966C20.082 29.3023 17.5636 30.0043 15 30C6.99165 30 0.5 23.2845 0.5 15C0.5 6.7155 6.99165 -9.53662e-07 15 -9.53662e-07C23.0083 -9.53662e-07 29.5 6.7155 29.5 15C29.5041 17.6508 28.826 20.255 27.5352 22.545L29.5 29.994ZM8.19659 20.4135C8.20822 20.6072 8.25754 20.7965 8.34159 20.97C8.43067 21.1327 8.54202 21.2812 8.67219 21.411C8.83604 21.591 8.97814 21.693 9.11589 21.8025C9.81334 22.3569 10.6694 22.6551 11.549 22.65C12.2595 22.647 12.9511 22.455 13.5978 22.155C14.9057 21.5415 16.2905 20.532 17.5737 19.1985C17.8826 18.8775 18.1929 18.564 18.4814 18.2265C19.8901 16.5714 20.9059 14.5991 21.4481 12.4665L21.5743 11.613C21.5888 11.3355 21.5685 11.058 21.5554 10.779C21.5336 10.3421 21.4193 9.91557 21.2205 9.52949C21.1227 9.33306 21.0162 9.14136 20.9015 8.95499C20.9015 8.95499 20.8609 8.89049 20.771 8.76749C20.626 8.56499 20.523 8.44049 20.3534 8.27249C20.2287 8.14799 20.0822 8.03999 19.9155 7.95749C19.6791 7.84049 19.2282 7.7235 18.8526 7.6755C18.5655 7.6395 18.4089 7.65 18.3118 7.6545C18.1566 7.6605 17.9957 7.79399 17.9275 7.93949L17.5491 8.81249C17.5491 8.81249 16.9995 10.1175 16.6486 10.914C16.6133 10.998 16.5931 11.088 16.5892 11.1795C16.579 11.2821 16.5902 11.3858 16.6219 11.4836C16.6537 11.5814 16.7053 11.671 16.7733 11.7465H16.7704C16.7704 11.754 16.8531 11.8545 18.1233 12.939C18.2041 13.0012 18.2652 13.087 18.2988 13.1853C18.3324 13.2836 18.3369 13.39 18.3118 13.491C18.2865 13.5887 18.2545 13.6845 18.2161 13.7775C18.1407 13.9635 18.1117 14.028 18.058 14.1555L18.0551 14.163C17.693 15.0211 17.2038 15.8157 16.6051 16.518C16.4456 16.707 16.2716 16.8825 16.1034 17.0625C15.5571 17.6526 14.9391 18.1669 14.2648 18.5925L14.1271 18.681C14.0345 18.7446 13.9347 18.7959 13.8298 18.834C13.6167 18.891 13.4456 18.7425 13.4456 18.7425C13.4456 18.7425 13.0599 18.378 12.8511 18.2085C12.6776 18.0674 12.497 17.9357 12.3102 17.814C12.0347 17.637 11.752 17.5815 11.533 17.6745C10.5412 18.0945 9.55379 18.5295 8.57359 18.9765C8.37929 19.065 8.24009 19.3275 8.21254 19.566C8.20384 19.647 8.19514 19.728 8.18934 19.809C8.17967 20.0104 8.18306 20.2123 8.19659 20.4135Z" fill="#D1FDFF" fill-opacity="0.5"/>
</svg>
