<svg  viewBox="0 0 18 18" fill="none" xmlns="http://www.w3.org/2000/svg">
<path fill-rule="evenodd" clip-rule="evenodd" d="M9 18C13.9706 18 18 13.9706 18 9C18 4.02944 13.9706 0 9 0C4.02944 0 0 4.02944 0 9C0 13.9706 4.02944 18 9 18ZM13 12.536V10.9644C13.0001 10.9094 12.9801 10.8563 12.9433 10.8154C12.9064 10.7745 12.8557 10.7487 12.8009 10.7431C12.6996 10.7333 12.6182 10.7236 12.5564 10.7147C11.9403 10.6267 11.3409 10.4462 10.7787 10.1791C10.7352 10.1586 10.6859 10.154 10.6393 10.1661C10.5928 10.1782 10.552 10.2062 10.524 10.2453L9.83956 11.2027C8.47313 10.6162 7.3842 9.52731 6.79778 8.16089L7.75689 7.47556C7.83689 7.41867 7.86444 7.31245 7.82222 7.22356C7.55467 6.66126 7.37366 6.06174 7.28533 5.44533C7.27644 5.38356 7.26711 5.30222 7.25689 5.2C7.25138 5.14515 7.22567 5.0943 7.18477 5.05734C7.14387 5.02038 7.09068 4.99994 7.03556 5H5.464C5.35148 4.99995 5.24312 5.04258 5.1608 5.11929C5.07848 5.196 5.02832 5.30109 5.02044 5.41333C5.00667 5.60756 5 5.76622 5 5.88889C5 9.81645 8.18356 13 12.1111 13C12.2338 13 12.3924 12.9929 12.5867 12.9796C12.6989 12.9717 12.804 12.9215 12.8807 12.8392C12.9574 12.7569 13.0001 12.6485 13 12.536Z" fill="#D1FDFF"/>
</svg>
