<svg width="21" height="19" viewBox="0 0 21 19" fill="#2A355E" xmlns="http://www.w3.org/2000/svg">
<path d="M15.5792 11.6919H14.721L14.4168 11.4294C15.5182 10.2863 16.1236 8.82709 16.1223 7.3179C16.1223 6.06833 15.7082 4.84684 14.9323 3.80786C14.1565 2.76889 13.0536 1.95911 11.7633 1.48092C10.4731 1.00274 9.05334 0.877622 7.68361 1.1214C6.31387 1.36518 5.05569 1.96689 4.06817 2.85047C3.08065 3.73404 2.40814 4.85978 2.13568 6.08533C1.86323 7.31089 2.00306 8.58121 2.5375 9.73564C3.07195 10.8901 3.977 11.8768 5.1382 12.5711C6.29941 13.2652 7.66461 13.6358 9.06118 13.6358C10.8102 13.6358 12.418 13.0623 13.6564 12.1098L13.9497 12.382V13.1498L19.3814 18L21 16.5518L15.5792 11.6919ZM9.06118 11.6919C6.35621 11.6919 4.17267 9.73809 4.17267 7.3179C4.17267 4.89766 6.35621 2.94397 9.06118 2.94397C11.7662 2.94397 13.9497 4.89766 13.9497 7.3179C13.9497 9.73809 11.7662 11.6919 9.06118 11.6919Z" fill="#D1FDFF"/>
</svg>
