<svg width="19" height="18" viewBox="0 0 19 18" fill="none" xmlns="http://www.w3.org/2000/svg">
<path d="M13.4565 11.3842H12.6542L12.3699 11.1171C13.3995 9.95347 13.9654 8.46795 13.9643 6.93159C13.9643 5.65955 13.5771 4.41606 12.8518 3.35839C12.1265 2.30072 11.0955 1.47637 9.88935 0.989579C8.68317 0.502787 7.35592 0.37542 6.07545 0.623584C4.79497 0.871749 3.61878 1.4843 2.69561 2.38377C1.77244 3.28325 1.14375 4.42925 0.889047 5.67685C0.634345 6.92446 0.765067 8.21764 1.26468 9.39286C1.7643 10.5681 2.61037 11.5726 3.69591 12.2793C4.78144 12.986 6.05768 13.3632 7.36325 13.3632C8.99827 13.3632 10.5013 12.7794 11.659 11.8097L11.9332 12.0868V12.8684L17.0109 17.8059L18.5241 16.3316L13.4565 11.3842ZM7.36325 11.3842C4.83454 11.3842 2.7933 9.39539 2.7933 6.93159C2.7933 4.4678 4.83454 2.47895 7.36325 2.47895C9.89195 2.47895 11.9332 4.4678 11.9332 6.93159C11.9332 9.39539 9.89195 11.3842 7.36325 11.3842Z" fill="#2A355E"/>
</svg>
